<svg xmlns="http://www.w3.org/2000/svg" width="17" height="20" viewBox="0 0 17 20">
  <g id="_01_align_center" data-name="01 align center" transform="translate(-2)">
    <path id="Контур_67" data-name="Контур 67" d="M19,3.333H14.75V1.667A1.684,1.684,0,0,0,13.05,0H7.95a1.684,1.684,0,0,0-1.7,1.667V3.333H2V5H3.7V17.5A2.525,2.525,0,0,0,6.25,20h8.5a2.525,2.525,0,0,0,2.55-2.5V5H19ZM7.95,1.667h5.1V3.333H7.95ZM15.6,17.5a.842.842,0,0,1-.85.833H6.25A.842.842,0,0,1,5.4,17.5V5H15.6Z" fill="#3d3e41"/>
    <rect id="Прямоугольник_272" data-name="Прямоугольник 272" width="2" height="8" transform="translate(7.458 7.995)" fill="#3d3e41"/>
    <rect id="Прямоугольник_273" data-name="Прямоугольник 273" width="2" height="8" transform="translate(11.542 7.995)" fill="#3d3e41"/>
  </g>
</svg>
