<svg id="settings-sliders" xmlns="http://www.w3.org/2000/svg" width="15" height="15" viewBox="0 0 15 15">
  <path id="Контур_49" data-name="Контур 49" d="M.625,2.983h1.71a2.327,2.327,0,0,0,4.5,0h7.543a.628.628,0,0,0,0-1.256H6.832a2.327,2.327,0,0,0-4.5,0H.625a.628.628,0,0,0,0,1.256ZM4.583,1.256a1.1,1.1,0,1,1-1.094,1.1A1.1,1.1,0,0,1,4.583,1.256Z" transform="translate(0 0)" fill="#a4a4a4"/>
  <path id="Контур_50" data-name="Контур 50" d="M14.375,9.977h-1.71a2.326,2.326,0,0,0-4.5,0H.625a.628.628,0,0,0,0,1.256H8.169a2.326,2.326,0,0,0,4.5,0h1.71a.628.628,0,0,0,0-1.256ZM10.417,11.7a1.1,1.1,0,1,1,1.094-1.1,1.1,1.1,0,0,1-1.094,1.1Z" transform="translate(0 -3.105)" fill="#a4a4a4"/>
  <path id="Контур_51" data-name="Контур 51" d="M14.375,18.227H6.832a2.327,2.327,0,0,0-4.5,0H.625a.628.628,0,0,0,0,1.256h1.71a2.327,2.327,0,0,0,4.5,0h7.543a.628.628,0,0,0,0-1.256ZM4.583,19.954a1.1,1.1,0,1,1,1.094-1.1A1.1,1.1,0,0,1,4.583,19.954Z" transform="translate(0 -6.211)" fill="#a4a4a4"/>
</svg>
